<svg width="109" height="73" viewBox="0 0 109 73" fill="none" xmlns="http://www.w3.org/2000/svg">
<g clip-path="url(#clip0_1_876)">
<path fill-rule="evenodd" clip-rule="evenodd" d="M59.5096 8.66199L92.4432 18.9993V35.186L81.5471 38.7481V23.3622L47.2622 12.3863L59.5096 8.66199Z" fill="#FDBA74"/>
<path d="M61.0776 8.623L94.2238 19.2601C94.5709 19.3715 94.8739 19.5905 95.0895 19.8855C95.3051 20.1806 95.4221 20.5366 95.4238 20.9026V34.9478C95.4255 35.3078 95.3157 35.6593 95.1094 35.9536C94.9032 36.248 94.6108 36.4705 94.2728 36.5903L91.0326 37.7401C90.605 37.8784 90.1405 37.8438 89.7379 37.6436C89.3353 37.4433 89.0264 37.0933 88.8767 36.6679C88.7271 36.2424 88.7486 35.7751 88.9366 35.3654C89.1247 34.9556 89.4645 34.6357 89.8837 34.4736L91.973 33.7324V22.1735L55.0632 10.3291C54.7195 10.217 54.4195 9.99922 54.2056 9.70663C53.9918 9.41405 53.8747 9.06141 53.8711 8.69845C53.8675 8.3355 53.9775 7.98057 54.1855 7.68375C54.3935 7.38693 54.6891 7.16321 55.0305 7.04416L67.1737 2.86816C67.5223 2.74867 67.8998 2.74435 68.251 2.85584L106.888 15.1005C107.236 15.2109 107.541 15.4294 107.758 15.7245C107.974 16.0197 108.092 16.3763 108.094 16.743V58.9917C108.092 59.3582 107.975 59.7146 107.758 60.0097C107.542 60.3048 107.238 60.5234 106.89 60.6342L68.251 72.924C67.9105 73.0329 67.5448 73.0329 67.2043 72.924L29.0496 60.6424C28.7029 60.5306 28.4002 60.3115 28.1851 60.0165C27.9699 59.7214 27.8532 59.3656 27.8516 58.9999V53.2738C27.8436 53.0414 27.8823 52.8097 27.9654 52.5926C28.0485 52.3755 28.1742 52.1774 28.3351 52.0102C28.496 51.8429 28.6888 51.7099 28.902 51.619C29.1152 51.5282 29.3444 51.4814 29.576 51.4814C29.8076 51.4814 30.0368 51.5282 30.2499 51.619C30.4631 51.7099 30.6559 51.8429 30.8168 52.0102C30.9777 52.1774 31.1035 52.3755 31.1865 52.5926C31.2696 52.8097 31.3083 53.0414 31.3003 53.2738V57.7311L67.7338 69.4522L104.644 57.7311V18.018L67.7542 6.32763L61.0776 8.623Z" fill="white"/>
<path d="M105.848 15.3264C106.281 15.1994 106.746 15.2476 107.144 15.4608C107.542 15.6739 107.841 16.0351 107.977 16.467C108.113 16.8989 108.075 17.3671 107.872 17.7713C107.668 18.1756 107.315 18.4838 106.888 18.6299L68.251 30.9053C67.9118 31.0135 67.5476 31.0135 67.2084 30.9053L37.7235 21.4857C37.5015 21.4221 37.2943 21.3144 37.1145 21.169C36.9346 21.0235 36.7856 20.8433 36.6764 20.6389C36.5672 20.4346 36.4999 20.2103 36.4786 19.9794C36.4572 19.7484 36.4823 19.5155 36.5522 19.2945C36.6222 19.0735 36.7356 18.8688 36.8857 18.6926C37.0359 18.5164 37.2197 18.3722 37.4264 18.2687C37.633 18.1652 37.8583 18.1044 38.0888 18.0899C38.3192 18.0754 38.5503 18.1075 38.7682 18.1843L67.7318 27.4356L105.848 15.3264Z" fill="white"/>
<path d="M84.9468 36.0073C85.3721 35.893 85.8249 35.9463 86.2124 36.1564C86.5999 36.3664 86.8928 36.7174 87.031 37.1373C87.1693 37.5571 87.1424 38.0142 86.956 38.4149C86.7695 38.8155 86.4376 39.1294 86.0282 39.2923L81.774 40.7028C81.5151 40.7884 81.2397 40.8112 80.9703 40.7693C80.7009 40.7274 80.4453 40.622 80.2243 40.4618C80.0033 40.3015 79.8233 40.091 79.6989 39.8474C79.5746 39.6038 79.5095 39.334 79.5089 39.0603V26.2818L42.5992 14.4375C42.256 14.3237 41.957 14.1047 41.7444 13.8112C41.5318 13.5177 41.4164 13.1646 41.4143 12.8016C41.4123 12.4387 41.5238 12.0843 41.7331 11.7884C41.9424 11.4925 42.2389 11.2701 42.5808 11.1525L57.0707 6.33387C57.4966 6.21761 57.9507 6.26967 58.3395 6.47935C58.7283 6.68902 59.0224 7.04038 59.1612 7.46113C59.2999 7.88189 59.2729 8.34006 59.0856 8.74141C58.8983 9.14275 58.565 9.45675 58.1542 9.61883L48.6993 12.7683L81.7597 23.3766C82.1068 23.4881 82.4099 23.707 82.6254 24.0021C82.841 24.2971 82.958 24.6532 82.9597 25.0191V36.6664L84.9468 36.0073Z" fill="white"/>
<path d="M31.2922 18.3115V26.6594C31.2768 27.1084 31.0884 27.5339 30.7667 27.846C30.445 28.1582 30.0152 28.3326 29.5679 28.3326C29.1206 28.3326 28.6907 28.1582 28.369 27.846C28.0473 27.5339 27.8589 27.1084 27.8435 26.6594V17.0489C27.8436 16.6801 27.9608 16.321 28.1781 16.0238C28.3954 15.7266 28.7014 15.5067 29.0517 15.3961L42.7485 11.0846C43.1818 10.9576 43.6475 11.0063 44.0456 11.2201C44.4437 11.434 44.7424 11.796 44.8778 12.2285C45.0131 12.6611 44.9743 13.1297 44.7696 13.5338C44.5649 13.9379 44.2107 14.2453 43.7829 14.3901L31.2922 18.3115Z" fill="white"/>
<path d="M45.8576 30.4885C46.3152 30.4885 46.7541 30.6711 47.0777 30.9961C47.4012 31.321 47.583 31.7618 47.583 32.2213C47.583 32.6809 47.4012 33.1217 47.0777 33.4466C46.7541 33.7716 46.3152 33.9542 45.8576 33.9542H14.8436C14.6122 33.9622 14.3815 33.9233 14.1653 33.8399C13.9491 33.7564 13.7519 33.6302 13.5854 33.4686C13.4188 33.307 13.2864 33.1133 13.1959 32.8992C13.1055 32.6851 13.0588 32.4549 13.0588 32.2224C13.0588 31.9898 13.1055 31.7596 13.1959 31.5455C13.2864 31.3314 13.4188 31.1378 13.5854 30.9762C13.7519 30.8146 13.9491 30.6883 14.1653 30.6049C14.3815 30.5214 14.6122 30.4826 14.8436 30.4906L45.8576 30.4885Z" fill="#10B981"/>
<path d="M28.61 38.1116C29.057 38.1271 29.4806 38.3163 29.7914 38.6394C30.1023 38.9625 30.276 39.3942 30.276 39.8434C30.276 40.2927 30.1023 40.7243 29.7914 41.0474C29.4806 41.3705 29.057 41.5597 28.61 41.5752H1.72544C1.494 41.5832 1.26332 41.5443 1.04715 41.4609C0.830985 41.3775 0.633751 41.2512 0.467206 41.0896C0.300661 40.928 0.168212 40.7344 0.0777521 40.5203C-0.0127074 40.3062 -0.0593262 40.076 -0.0593262 39.8434C-0.0593262 39.6108 -0.0127074 39.3806 0.0777521 39.1665C0.168212 38.9524 0.300661 38.7588 0.467206 38.5972C0.633751 38.4356 0.830985 38.3093 1.04715 38.2259C1.26332 38.1425 1.494 38.1036 1.72544 38.1116H28.61Z" fill="#10B981"/>
<path d="M9.66142 33.9542C10.6143 33.9542 11.3868 33.1783 11.3868 32.2213C11.3868 31.2643 10.6143 30.4885 9.66142 30.4885C8.70852 30.4885 7.93604 31.2643 7.93604 32.2213C7.93604 33.1783 8.70852 33.9542 9.66142 33.9542Z" fill="#10B981"/>
<path d="M14.49 49.1984C15.4429 49.1984 16.2154 48.4226 16.2154 47.4656C16.2154 46.5086 15.4429 45.7328 14.49 45.7328C13.5371 45.7328 12.7646 46.5086 12.7646 47.4656C12.7646 48.4226 13.5371 49.1984 14.49 49.1984Z" fill="#10B981"/>
<path d="M36.8894 45.7328C37.3365 45.7483 37.7601 45.9375 38.0709 46.2606C38.3817 46.5837 38.5554 47.0154 38.5554 47.4646C38.5554 47.9139 38.3817 48.3456 38.0709 48.6686C37.7601 48.9917 37.3365 49.181 36.8894 49.1964H19.6642C19.4327 49.2044 19.202 49.1656 18.9859 49.0821C18.7697 48.9987 18.5725 48.8724 18.4059 48.7108C18.2394 48.5492 18.1069 48.3556 18.0165 48.1415C17.926 47.9274 17.8794 47.6972 17.8794 47.4646C17.8794 47.2321 17.926 47.0019 18.0165 46.7878C18.1069 46.5737 18.2394 46.38 18.4059 46.2184C18.5725 46.0568 18.7697 45.9306 18.9859 45.8471C19.202 45.7637 19.4327 45.7248 19.6642 45.7328H36.8894Z" fill="#10B981"/>
<path d="M54.1392 0C54.5968 0 55.0357 0.182564 55.3593 0.50753C55.6828 0.832496 55.8646 1.27324 55.8646 1.73282C55.8646 2.19239 55.6828 2.63314 55.3593 2.9581C55.0357 3.28307 54.5968 3.46563 54.1392 3.46563H27.2547C26.7971 3.46563 26.3582 3.28307 26.0347 2.9581C25.7111 2.63314 25.5293 2.19239 25.5293 1.73282C25.5293 1.27324 25.7111 0.832496 26.0347 0.50753C26.3582 0.182564 26.7971 0 27.2547 0H54.1392Z" fill="#10B981"/>
<path d="M27.2301 8.31506C27.6877 8.31506 28.1265 8.49763 28.4501 8.82259C28.7737 9.14756 28.9555 9.58831 28.9555 10.0479C28.9555 10.5075 28.7737 10.9482 28.4501 11.2732C28.1265 11.5981 27.6877 11.7807 27.2301 11.7807H14.1466C13.9151 11.7887 13.6845 11.7498 13.4683 11.6664C13.2521 11.583 13.0549 11.4567 12.8883 11.2951C12.7218 11.1335 12.5894 10.9399 12.4989 10.7258C12.4084 10.5117 12.3618 10.2815 12.3618 10.0489C12.3618 9.81633 12.4084 9.58613 12.4989 9.37203C12.5894 9.15793 12.7218 8.96431 12.8883 8.80271C13.0549 8.64111 13.2521 8.51483 13.4683 8.43141C13.6845 8.34798 13.9151 8.30911 14.1466 8.31712L27.2301 8.31506Z" fill="#10B981"/>
<path d="M69.686 71.1112C69.6706 71.5602 69.4822 71.9856 69.1605 72.2977C68.8388 72.6099 68.409 72.7844 67.9617 72.7844C67.5143 72.7844 67.0845 72.6099 66.7628 72.2977C66.4411 71.9856 66.2527 71.5602 66.2373 71.1112V62.5436C66.2373 62.084 66.4191 61.6433 66.7427 61.3183C67.0662 60.9934 67.5051 60.8108 67.9627 60.8108C68.4203 60.8108 68.8591 60.9934 69.1827 61.3183C69.5063 61.6433 69.6881 62.084 69.6881 62.5436L69.686 71.1112Z" fill="white"/>
<path d="M69.6861 55.5815C69.694 55.8139 69.6553 56.0456 69.5723 56.2627C69.4892 56.4798 69.3635 56.6779 69.2026 56.8451C69.0416 57.0124 68.8489 57.1454 68.6357 57.2363C68.4225 57.3271 68.1933 57.3739 67.9617 57.3739C67.7301 57.3739 67.5009 57.3271 67.2877 57.2363C67.0746 57.1454 66.8818 57.0124 66.7209 56.8451C66.56 56.6779 66.4342 56.4798 66.3512 56.2627C66.2681 56.0456 66.2294 55.8139 66.2374 55.5815V30.8355C66.2374 30.3759 66.4191 29.9352 66.7427 29.6102C67.0663 29.2852 67.5051 29.1027 67.9627 29.1027C68.4203 29.1027 68.8592 29.2852 69.1828 29.6102C69.5063 29.9352 69.6881 30.3759 69.6881 30.8355L69.6861 55.5815Z" fill="white"/>
</g>
<defs>
<clipPath id="clip0_1_876">
<rect width="108.092" height="73" fill="white"/>
</clipPath>
</defs>
</svg>
