<svg width="66" height="73" viewBox="0 0 66 73" fill="none" xmlns="http://www.w3.org/2000/svg">
<g clip-path="url(#clip0_1_845)">
<path fill-rule="evenodd" clip-rule="evenodd" d="M55.2976 53.8429C57.7466 53.8429 60.0952 52.8716 61.8269 51.1427C63.5586 49.4139 64.5315 47.069 64.5315 44.6241C64.5315 42.1791 63.5586 39.8343 61.8269 38.1054C60.0952 36.3765 57.7466 35.4053 55.2976 35.4053V53.8429Z" fill="#FDBA74"/>
<path fill-rule="evenodd" clip-rule="evenodd" d="M56.7644 52.235V37.0096C58.5369 37.3504 60.1352 38.2969 61.2846 39.6865C62.434 41.0761 63.0627 42.8219 63.0627 44.6241C63.0627 46.4263 62.434 48.1721 61.2846 49.5617C60.1352 50.9513 58.5369 51.8978 56.7644 52.2386V52.235ZM57.5032 8.47929C54.8258 5.79129 51.6425 3.65817 48.1365 2.20259C44.6305 0.747012 40.8708 -0.00231934 37.0737 -0.00231934C33.2767 -0.00231934 29.517 0.747012 26.011 2.20259C22.505 3.65817 19.3217 5.79129 16.6443 8.47929C14.5925 10.5231 12.8568 12.8604 11.4941 15.4143C10.6315 17.7653 13.414 18.3394 14.0892 16.7769C16.797 11.6491 21.1469 7.57438 26.4449 5.20268C31.743 2.83098 37.684 2.29897 43.3202 3.69151C48.9564 5.08405 53.9632 8.32092 57.5418 12.8858C61.1205 17.4506 63.0648 23.0805 63.0646 28.8773V37.2821C62.067 36.2257 60.8635 35.384 59.5281 34.8088C58.1928 34.2336 56.7537 33.937 55.2994 33.9373C54.9099 33.9373 54.5364 34.0917 54.2609 34.3667C53.9855 34.6417 53.8308 35.0146 53.8308 35.4035V53.8429C53.8308 54.0354 53.8688 54.2261 53.9426 54.404C54.0164 54.5819 54.1246 54.7435 54.2609 54.8797C54.3973 55.0158 54.5592 55.1238 54.7374 55.1975C54.9156 55.2712 55.1065 55.3091 55.2994 55.3091C58.1082 55.3052 60.8032 54.2001 62.8039 52.2319C64.8046 50.2636 65.9511 47.5897 65.9964 44.7858C65.9964 44.7676 65.9964 39.4648 65.9964 28.8773C66.0019 25.0859 65.2543 21.3311 63.7968 17.8302C62.3392 14.3292 60.2007 11.1515 57.505 8.48111L57.5032 8.47929Z" fill="white"/>
<path fill-rule="evenodd" clip-rule="evenodd" d="M63.3157 53.6885C62.9882 53.6884 62.6707 53.8017 62.4174 54.009C62.1641 54.2164 61.9907 54.5051 61.9267 54.8258C61.8627 55.1465 61.9121 55.4795 62.0664 55.768C62.2207 56.0564 62.4705 56.2825 62.7731 56.4078C63.0757 56.533 63.4124 56.5496 63.7259 56.4548C64.0394 56.3599 64.3102 56.1595 64.4923 55.8876C64.6743 55.6158 64.7563 55.2893 64.7243 54.9638C64.6923 54.6383 64.5482 54.334 64.3166 54.1027C64.0503 53.8389 63.6909 53.6902 63.3157 53.6885Z" fill="white"/>
<path fill-rule="evenodd" clip-rule="evenodd" d="M42.1184 67.7147L44.2021 67.2732L44.6443 69.3535L42.5606 69.795L42.1184 67.7147ZM62.5206 58.3015C62.1826 58.1091 61.782 58.0585 61.4067 58.1607C61.0314 58.2629 60.7121 58.5095 60.5187 58.8466C59.1195 61.2738 57.2479 63.3969 55.0142 65.091C52.7805 66.785 50.2298 68.0156 47.5124 68.7103L46.7735 65.2383C46.7335 65.0499 46.6567 64.8713 46.5475 64.7125C46.4383 64.5538 46.2989 64.4181 46.1372 64.3131C45.9755 64.2082 45.7946 64.1361 45.605 64.1009C45.4153 64.0657 45.2206 64.0682 45.0319 64.1082L40.0765 65.1602C39.6958 65.2413 39.3629 65.47 39.151 65.796C38.939 66.1221 38.8655 66.5187 38.9464 66.8989L40.0001 71.8463C40.0401 72.0346 40.1169 72.2133 40.2261 72.3721C40.3352 72.5308 40.4747 72.6665 40.6364 72.7715C40.7981 72.8764 40.979 72.9485 41.1686 72.9837C41.3583 73.0188 41.553 73.0163 41.7417 72.9764L46.6971 71.9244C50.1009 71.2778 53.325 69.9057 56.1493 67.9018C58.9737 65.8979 61.3318 63.3094 63.0629 60.3128C63.1604 60.1454 63.2238 59.9604 63.2493 59.7684C63.2748 59.5764 63.262 59.3813 63.2116 59.1943C63.1612 59.0073 63.0742 58.8321 62.9555 58.6789C62.8369 58.5256 62.6891 58.3974 62.5206 58.3015Z" fill="white"/>
<path fill-rule="evenodd" clip-rule="evenodd" d="M4.98453 55.7978C3.66255 55.7978 2.39472 55.2735 1.45994 54.3402C0.525155 53.407 0 52.1412 0 50.8214V24.7293C0 24.0758 0.128929 23.4287 0.379425 22.8249C0.629921 22.2212 0.997079 21.6726 1.45994 21.2105C1.92279 20.7484 2.47228 20.3818 3.07703 20.1317C3.68179 19.8816 4.32995 19.7529 4.98453 19.7529H40.8881C41.5427 19.7529 42.1908 19.8816 42.7956 20.1317C43.4003 20.3818 43.9498 20.7484 44.4127 21.2105C44.8755 21.6726 45.2427 22.2212 45.4932 22.8249C45.7437 23.4287 45.8726 24.0758 45.8726 24.7293V57.5275C45.8749 58.1836 45.673 58.8243 45.2948 59.3609C44.9166 59.8975 44.3808 60.3036 43.7614 60.5231C43.142 60.7425 42.4696 60.7644 41.8372 60.5858C41.2048 60.4072 40.6436 60.0369 40.2311 59.526L37.2029 55.8014L4.98453 55.7978ZM4.98453 22.4655C4.68654 22.465 4.39138 22.5233 4.11595 22.6368C3.84052 22.7504 3.59024 22.9171 3.37945 23.1274C3.16865 23.3377 3.00147 23.5874 2.88749 23.8623C2.7735 24.1372 2.71496 24.4318 2.7152 24.7293V50.8232C2.7152 51.4231 2.9539 51.9985 3.3788 52.4227C3.8037 52.8469 4.37999 53.0852 4.98089 53.0852H38.5041L42.3476 57.8091C42.4067 57.8814 42.4867 57.9338 42.5767 57.9589C42.6668 57.9841 42.7624 57.9808 42.8505 57.9495C42.9386 57.9183 43.0149 57.8606 43.0688 57.7844C43.1228 57.7082 43.1518 57.6172 43.152 57.5238V24.7293C43.152 24.1294 42.9133 23.5541 42.4884 23.1299C42.0635 22.7057 41.4872 22.4673 40.8863 22.4673L4.98453 22.4655Z" fill="#10B981"/>
<path fill-rule="evenodd" clip-rule="evenodd" d="M31.2865 36.3646H40.4258V38.7374L35.6341 50.5652H32.6805L37.332 39.0426H31.2865V36.3646ZM27.6851 36.112V38.7083H26.1692V41.1229H23.3557V38.7083H16.6641V36.1102L21.5377 26.637H24.5295L19.676 36.1102H23.3557V32.7435H26.1655V36.112H27.6851ZM5.69053 41.1211V39.0317L10.5222 34.0408C11.3908 33.3233 11.9663 32.3131 12.14 31.201C12.1551 30.9555 12.1178 30.7095 12.0308 30.4794C11.9438 30.2492 11.809 30.0401 11.6352 29.8657C11.4614 29.6913 11.2525 29.5557 11.0224 29.4677C10.7923 29.3797 10.5462 29.3413 10.3002 29.3551C9.78384 29.3624 9.28175 29.5252 8.85963 29.8221C8.4375 30.1191 8.11502 30.5364 7.93439 31.0193L5.58862 29.6403C5.98045 28.7332 6.63409 27.9633 7.46613 27.4287C8.29817 26.8941 9.27089 26.6191 10.2601 26.6389C10.865 26.6063 11.4702 26.6979 12.0383 26.908C12.6063 27.1181 13.1252 27.4423 13.5628 27.8605C14.0004 28.2787 14.3475 28.782 14.5827 29.3394C14.8178 29.8967 14.9359 30.4963 14.9298 31.1011C14.8623 31.9741 14.622 32.8251 14.2227 33.6048C13.8235 34.3845 13.2734 35.0773 12.6041 35.6433L9.8343 38.4267H15.1519V41.1248L5.69053 41.1211Z" fill="white"/>
<path fill-rule="evenodd" clip-rule="evenodd" d="M34.3804 27.1385L21.7581 50.5653H22.981L35.5979 27.1404L34.3804 27.1385Z" fill="#EDB56A"/>
</g>
<defs>
<clipPath id="clip0_1_845">
<rect width="66" height="73" fill="white"/>
</clipPath>
</defs>
</svg>
