<svg width="48" height="48" viewBox="0 0 48 48" fill="none" xmlns="http://www.w3.org/2000/svg">
<path d="M30.8995 7.5606C30.8195 8.0606 30.7795 8.5606 30.7795 9.0606C30.7795 13.5606 34.4195 17.1986 38.8995 17.1986C39.3995 17.1986 39.8795 17.1406 40.3795 17.0606V33.1986C40.3795 39.9806 36.3795 44.0006 29.5795 44.0006H14.8015C7.99951 44.0006 3.99951 39.9806 3.99951 33.1986V18.4006C3.99951 11.6006 7.99951 7.5606 14.8015 7.5606H30.8995ZM31.3015 19.7206C30.7595 19.6606 30.2215 19.9006 29.8995 20.3406L25.0615 26.6006L19.5195 22.2406C19.1795 21.9806 18.7795 21.8786 18.3795 21.9206C17.9815 21.9806 17.6215 22.1986 17.3795 22.5186L11.4615 30.2206L11.3395 30.4006C10.9995 31.0386 11.1595 31.8586 11.7595 32.3006C12.0395 32.4806 12.3395 32.6006 12.6795 32.6006C13.1415 32.6206 13.5795 32.3786 13.8595 32.0006L18.8795 25.5386L24.5795 29.8206L24.7595 29.9386C25.3995 30.2786 26.1995 30.1206 26.6595 29.5186L32.4395 22.0606L32.3595 22.1006C32.6795 21.6606 32.7395 21.1006 32.5195 20.6006C32.3015 20.1006 31.8195 19.7606 31.3015 19.7206ZM39.1797 4C41.8397 4 43.9997 6.16 43.9997 8.82C43.9997 11.48 41.8397 13.64 39.1797 13.64C36.5197 13.64 34.3597 11.48 34.3597 8.82C34.3597 6.16 36.5197 4 39.1797 4Z" fill="#059669"/>
</svg>
